<svg width="109" height="32" viewBox="0 0 109 32" fill="none" xmlns="http://www.w3.org/2000/svg">
<path d="M42.1484 1H45.2441L54.7559 5.98047V1H57.8516V16.2637H54.7559V9.26172L45.2441 4.31055V16.2637H42.1484V1Z" fill="#E54C41"/>
<path d="M62.168 1H75.166V3.71484H65.2637V6.76172H74.0332V9.31055H65.2637V13.5586H75.3711V16.2637H62.168V1Z" fill="#E54C41"/>
<path d="M83.1445 8.50977L77.2754 1H81.0645L85.1172 6.25391L89.1895 1H92.9199L86.9434 8.48047L93.125 16.2637H89.3262L84.9805 10.7754L80.5371 16.2637H76.7969L83.1445 8.50977Z" fill="#E54C41"/>
<path d="M100.049 3.71484H94.4141V1H108.779V3.71484H103.145V16.2637H100.049V3.71484Z" fill="#E54C41"/>
<path d="M48.89 20.4731C49.046 20.4731 49.1587 20.5165 49.228 20.6031C49.306 20.6811 49.345 20.8111 49.345 20.9931C49.345 21.0451 49.3364 21.1491 49.319 21.3051C48.6777 21.3051 48.2314 21.3918 47.98 21.5651C48.3267 21.9811 48.5 22.4968 48.5 23.1121C48.5 24.7761 47.5424 25.6081 45.627 25.6081C45.0377 25.6081 44.6044 25.6515 44.327 25.7381C44.0584 25.8161 43.924 25.9418 43.924 26.1151C43.924 26.5051 44.6217 26.7001 46.017 26.7001C46.9964 26.7001 47.7547 26.8648 48.292 27.1941C48.8294 27.5235 49.098 27.9915 49.098 28.5981C49.098 29.2481 48.8077 29.7465 48.227 30.0931C47.655 30.4485 46.8317 30.6261 45.757 30.6261C44.743 30.6261 43.9717 30.4701 43.443 30.1581C42.9144 29.8461 42.65 29.3868 42.65 28.7801C42.65 28.4335 42.767 28.1258 43.001 27.8571C43.2437 27.5885 43.5774 27.3891 44.002 27.2591V27.2201C43.742 27.1508 43.534 27.0251 43.378 26.8431C43.222 26.6525 43.144 26.4271 43.144 26.1671C43.144 25.9505 43.2307 25.7598 43.404 25.5951C43.5774 25.4218 43.8114 25.3048 44.106 25.2441C43.7334 25.0361 43.443 24.7631 43.235 24.4251C43.0357 24.0785 42.936 23.6928 42.936 23.2681C42.936 21.5695 43.9154 20.7201 45.874 20.7201C46.4894 20.7201 47.0137 20.8545 47.447 21.1231C47.6637 20.9238 47.8977 20.7678 48.149 20.6551C48.409 20.5338 48.656 20.4731 48.89 20.4731ZM45.705 24.8801C46.3724 24.8801 46.849 24.7501 47.135 24.4901C47.4297 24.2215 47.577 23.7795 47.577 23.1641C47.577 22.5575 47.4297 22.1155 47.135 21.8381C46.8404 21.5608 46.3637 21.4221 45.705 21.4221C45.0637 21.4221 44.5914 21.5651 44.288 21.8511C43.9934 22.1285 43.846 22.5661 43.846 23.1641C43.846 24.3081 44.4657 24.8801 45.705 24.8801ZM45.809 27.5061C45.0724 27.5061 44.5134 27.6058 44.132 27.8051C43.7594 28.0045 43.573 28.2948 43.573 28.6761C43.573 29.0748 43.7594 29.3781 44.132 29.5861C44.5047 29.7941 45.0464 29.8981 45.757 29.8981C46.5544 29.8981 47.1567 29.7941 47.564 29.5861C47.9714 29.3868 48.175 29.0835 48.175 28.6761C48.175 28.2601 47.9887 27.9611 47.616 27.7791C47.252 27.5971 46.6497 27.5061 45.809 27.5061Z" fill="white"/>
<path d="M55.7925 26.2191C55.7925 26.6178 55.8228 26.9341 55.8835 27.1681C55.9528 27.3935 56.0699 27.5971 56.2345 27.7791C56.1478 27.8658 56.0438 27.9351 55.9225 27.9871C55.8099 28.0391 55.7015 28.0651 55.5975 28.0651C55.4242 28.0651 55.2768 27.9655 55.1555 27.7661C55.0429 27.5668 54.9692 27.2938 54.9345 26.9471C54.6659 27.3111 54.3062 27.6015 53.8555 27.8181C53.4048 28.0261 52.9325 28.1301 52.4385 28.1301C51.7798 28.1301 51.2512 27.9611 50.8525 27.6231C50.4538 27.2765 50.2545 26.8258 50.2545 26.2711C50.2545 25.4565 50.6488 24.8195 51.4375 24.3601C52.2348 23.9008 53.3919 23.6365 54.9085 23.5671V23.1511C54.9085 22.5791 54.7612 22.1545 54.4665 21.8771C54.1805 21.5911 53.7429 21.4481 53.1535 21.4481C52.7722 21.4481 52.4169 21.5305 52.0875 21.6951C51.7669 21.8511 51.4202 22.1155 51.0475 22.4881C50.9955 22.5401 50.9305 22.5661 50.8525 22.5661C50.7658 22.5661 50.6705 22.5315 50.5665 22.4621C50.4625 22.3841 50.3628 22.2758 50.2675 22.1371C50.6575 21.6778 51.0995 21.3268 51.5935 21.0841C52.0962 20.8415 52.6292 20.7201 53.1925 20.7201C53.9985 20.7201 54.6312 20.9368 55.0905 21.3701C55.5585 21.8035 55.7925 22.3971 55.7925 23.1511V26.2191ZM52.5035 27.4021C52.9715 27.4021 53.4135 27.2721 53.8295 27.0121C54.2455 26.7521 54.6052 26.3838 54.9085 25.9071V24.2951C52.4125 24.3991 51.1645 25.0535 51.1645 26.2581C51.1645 27.0208 51.6108 27.4021 52.5035 27.4021Z" fill="white"/>
<path d="M65.4465 20.7201C66.0619 20.7201 66.5602 20.9195 66.9415 21.3181C67.3315 21.7168 67.5265 22.2325 67.5265 22.8651V28.0001H66.6295V22.9041C66.6295 22.4015 66.5169 22.0288 66.2915 21.7861C66.0662 21.5435 65.7239 21.4221 65.2645 21.4221C64.5279 21.4221 63.8432 21.7601 63.2105 22.4361C63.2279 22.5748 63.2365 22.6788 63.2365 22.7481V28.0001H62.3525V22.7741C62.3525 22.3668 62.2269 22.0418 61.9755 21.7991C61.7329 21.5478 61.4079 21.4221 61.0005 21.4221C60.6279 21.4221 60.2725 21.5045 59.9345 21.6691C59.6052 21.8338 59.2715 22.0981 58.9335 22.4621V28.0001H58.0495V23.2811C58.0495 21.9985 57.9975 21.2358 57.8935 20.9931C58.1709 20.8631 58.3919 20.7981 58.5565 20.7981C58.8079 20.7981 58.9335 21.0495 58.9335 21.5521V21.6041C59.2629 21.2921 59.6009 21.0668 59.9475 20.9281C60.3029 20.7895 60.7059 20.7201 61.1565 20.7201C61.5639 20.7201 61.9279 20.8155 62.2485 21.0061C62.5692 21.1881 62.8162 21.4395 62.9895 21.7601C63.3622 21.3961 63.7392 21.1318 64.1205 20.9671C64.5105 20.8025 64.9525 20.7201 65.4465 20.7201Z" fill="white"/>
<path d="M75.471 23.9181C75.471 24.1175 75.4623 24.3168 75.445 24.5161H70.271C70.2883 25.4175 70.4876 26.1195 70.869 26.6221C71.259 27.1248 71.7963 27.3761 72.481 27.3761C72.949 27.3761 73.3433 27.2851 73.664 27.1031C73.9933 26.9211 74.2663 26.6308 74.483 26.2321C74.5436 26.1195 74.6346 26.0631 74.756 26.0631C74.8946 26.0631 75.0853 26.1455 75.328 26.3101C75.1373 26.8735 74.7863 27.3198 74.275 27.6491C73.7636 27.9698 73.1656 28.1301 72.481 28.1301C71.8483 28.1301 71.2936 27.9828 70.817 27.6881C70.349 27.3848 69.9893 26.9558 69.738 26.4011C69.4866 25.8378 69.361 25.1748 69.361 24.4121C69.361 23.2595 69.647 22.3581 70.219 21.7081C70.791 21.0495 71.5753 20.7201 72.572 20.7201C73.482 20.7201 74.1926 21.0018 74.704 21.5651C75.2153 22.1285 75.471 22.9128 75.471 23.9181ZM74.561 23.8141C74.561 22.2541 73.885 21.4741 72.533 21.4741C71.8743 21.4741 71.3543 21.6735 70.973 22.0721C70.5916 22.4708 70.3663 23.0515 70.297 23.8141H74.561Z" fill="white"/>
<path d="M79.1704 28.1301C78.7804 28.1301 78.3774 28.0651 77.9614 27.9351C77.5454 27.8051 77.1987 27.6318 76.9214 27.4151C76.644 27.1985 76.5054 26.9688 76.5054 26.7261C76.5054 26.6135 76.54 26.5138 76.6094 26.4271C76.6874 26.3318 76.7827 26.2668 76.8954 26.2321C77.2074 26.6395 77.5454 26.9385 77.9094 27.1291C78.2734 27.3111 78.711 27.4021 79.2224 27.4021C79.7684 27.4021 80.18 27.2765 80.4574 27.0251C80.7434 26.7738 80.8864 26.4401 80.8864 26.0241C80.8864 25.7468 80.7997 25.5215 80.6264 25.3481C80.4617 25.1748 80.2537 25.0448 80.0024 24.9581C79.7597 24.8715 79.4217 24.7718 78.9884 24.6591C78.4857 24.5291 78.0784 24.4035 77.7664 24.2821C77.463 24.1608 77.203 23.9788 76.9864 23.7361C76.7784 23.4848 76.6744 23.1511 76.6744 22.7351C76.6744 22.2931 76.7914 21.9205 77.0254 21.6171C77.2594 21.3138 77.5584 21.0885 77.9224 20.9411C78.2864 20.7938 78.659 20.7201 79.0404 20.7201C79.5864 20.7201 80.0804 20.8285 80.5224 21.0451C80.973 21.2618 81.324 21.5781 81.5754 21.9941C81.3674 22.2108 81.1897 22.3191 81.0424 22.3191C80.9297 22.3191 80.8214 22.2585 80.7174 22.1371C80.5094 21.8945 80.2667 21.7168 79.9894 21.6041C79.7207 21.4828 79.3914 21.4221 79.0014 21.4221C78.5594 21.4221 78.2084 21.5261 77.9484 21.7341C77.6884 21.9421 77.5584 22.2628 77.5584 22.6961C77.5584 22.9475 77.6364 23.1511 77.7924 23.3071C77.9484 23.4631 78.1434 23.5845 78.3774 23.6711C78.6114 23.7491 78.932 23.8401 79.3394 23.9441C79.8594 24.0655 80.2797 24.1911 80.6004 24.3211C80.9297 24.4511 81.207 24.6548 81.4324 24.9321C81.6577 25.2008 81.7704 25.5648 81.7704 26.0241C81.7704 26.6655 81.532 27.1768 81.0554 27.5581C80.5874 27.9395 79.959 28.1301 79.1704 28.1301Z" fill="white"/>
<path d="M31.9894 5.59735C31.9894 6.75435 32.0117 7.9158 31.9894 9.0728C31.9493 10.5947 31.0542 11.1643 29.6202 11.1999C27.251 11.2578 26.3113 10.8528 26.2401 9.31755C26.1243 6.7944 26.1466 4.26235 26.2401 1.75255C26.2846 0.613351 27.0239 -0.0274492 28.2575 0.00370076H29.8384C31.3303 -0.0630492 31.9404 0.778001 31.985 2.13525C32.0161 3.2789 31.9894 4.4359 31.9894 5.59735ZM31.9939 18.4667V20.3669C31.9939 22.8722 31.5129 23.3395 29.0546 23.3351C26.6988 23.3351 26.1822 22.8233 26.1733 20.4559C26.1733 18.9295 26.1421 17.3987 26.1733 15.8679C26.2223 14.1814 26.8368 13.594 28.4801 13.5584C31.6688 13.4872 31.9805 13.7943 31.985 17.0428L31.9939 18.4667Z" fill="#4C88EF"/>
<path d="M5.7811 26.9932C5.7811 27.5183 5.74992 28.0479 5.7811 28.573C6.06166 32.1775 4.58313 32.084 1.35887 31.7681C0.379123 31.6746 0.0228515 30.7891 0.0228515 29.8813C-0.00832227 27.99 -0.00832227 26.0943 0.0273049 24.2075C0.0673855 22.828 0.811103 22.0849 2.254 22.1472H3.51877C5.17989 22.1872 5.74547 22.7524 5.77219 24.4656C5.7811 25.3111 5.7811 26.1522 5.7811 26.9932Z" fill="#E54C41"/>
<path d="M8.72037 19.5658V18.4622C8.72037 15.8456 9.16571 15.4095 11.7531 15.4273C14.0155 15.4273 14.5142 15.939 14.5365 18.2486V21.7285C14.5142 23.1302 13.8462 23.8956 12.3855 23.86H10.9604C9.35276 23.7977 8.80053 23.2504 8.73373 21.635C8.69811 20.9008 8.72037 20.2333 8.72037 19.5658Z" fill="#F9BE15"/>
<path d="M23.2117 27.7852V29.049C23.2117 31.4787 22.7975 31.8792 20.3526 31.8792C17.9077 31.8792 17.5247 31.4832 17.5158 29.0223C17.5158 27.8653 17.4935 26.7039 17.5158 25.5469C17.5514 24.2875 18.1838 23.5889 19.4931 23.6022H20.9182C22.6461 23.6378 23.1449 24.1362 23.1938 25.8851C23.225 26.517 23.2117 27.1311 23.2117 27.7852Z" fill="#3FA95B"/>
<path d="M31.9894 28.7596C31.9894 31.4919 31.6242 31.8746 29.0858 31.8746C26.5473 31.8746 26.1688 31.4296 26.1733 28.7596C26.1733 26.1519 26.6409 25.6758 29.1704 25.6802C31.5441 25.6802 31.9894 26.1653 31.9894 28.7596Z" fill="#4C88EF"/>
<path d="M11.6729 26.1118C14.0554 26.1118 14.532 26.5924 14.532 28.991C14.532 31.3895 13.9486 32.0259 11.5704 31.9992C9.19233 31.9725 8.70691 31.434 8.70691 29.08C8.71582 26.6236 9.23241 26.1074 11.6729 26.1118Z" fill="#F8BE18"/>
<path d="M23.2162 18.1464C23.2162 20.8876 20.8247 22.2449 18.4599 20.9588C18.2092 20.8155 17.9972 20.6134 17.842 20.37C17.6868 20.1266 17.5932 19.8491 17.5693 19.5615C17.5114 19.1477 17.5693 18.7205 17.5247 18.3022C17.2753 14.5508 18.8296 14.7422 21.9113 15.116C23.5457 15.3251 23.1494 17.025 23.2162 18.1464ZM20.4373 6.91016C22.8287 6.91016 23.2295 7.32846 23.2206 9.81156C23.2206 12.13 22.7753 12.5884 20.4506 12.5884C17.9122 12.5884 17.5069 12.1879 17.5158 9.66916C17.5203 7.29286 17.93 6.91016 20.4373 6.91016Z" fill="#3FA95B"/>
</svg>
